<svg width="273" height="55" viewBox="0 0 273 55" fill="none" xmlns="http://www.w3.org/2000/svg">
<g style="mix-blend-mode:hard-light" filter="url(#filter0_d_115_40)">
<path d="M10.488 44.08H34.04L20.472 6.768L6.2 46H4.152L20.472 1.136L36.792 46H10.488V44.08ZM59.6335 27.376L68.3375 46H66.2255L57.2655 26.8C57.3508 26.7573 57.7135 26.5867 58.3535 26.288C59.0362 25.9467 59.5055 25.712 59.7615 25.584C60.0175 25.4133 60.4442 25.136 61.0415 24.752C61.6388 24.368 62.0868 24.0053 62.3855 23.664C62.6842 23.28 63.0042 22.8533 63.3455 22.384C63.7295 21.872 64.0068 21.3173 64.1775 20.72C64.3482 20.08 64.4335 19.3973 64.4335 18.672C64.4335 15.984 63.1535 14 60.5935 12.72C58.0335 11.44 54.8548 10.8 51.0575 10.8H45.9375V46H44.0175V8.88H51.0575C56.0922 8.88 59.8895 9.75466 62.4495 11.504C65.0522 13.2533 66.3535 15.6427 66.3535 18.672C66.3535 20.6347 65.6922 22.384 64.3695 23.92C63.0468 25.4133 61.4682 26.5653 59.6335 27.376ZM101.018 8.88V10.8H87.5775V46H85.6575V10.8H72.2175V8.88H101.018ZM107.369 42.288H111.593V46H107.369V42.288ZM150.737 37.808C149.585 40.624 147.964 42.8 145.873 44.336C143.782 45.872 140.646 46.64 136.465 46.64C131.217 46.64 127.42 45.04 125.073 41.84C122.726 38.5973 121.553 33.5627 121.553 26.736V20.464C121.553 13.6373 122.726 8.624 125.073 5.424C127.42 2.18133 131.217 0.559998 136.465 0.559998C140.646 0.559998 143.782 1.328 145.873 2.864C147.964 4.4 149.585 6.576 150.737 9.392L149.009 10.224C148.028 7.74933 146.641 5.85066 144.849 4.528C143.057 3.16267 140.262 2.48 136.465 2.48C134.374 2.48 132.582 2.75733 131.089 3.312C129.596 3.824 128.252 4.72 127.057 6C125.862 7.28 124.966 9.136 124.369 11.568C123.772 13.9573 123.473 16.9227 123.473 20.464V26.736C123.473 30.2773 123.772 33.264 124.369 35.696C124.966 38.0853 125.862 39.92 127.057 41.2C128.252 42.48 129.596 43.3973 131.089 43.952C132.582 44.464 134.374 44.72 136.465 44.72C140.262 44.72 143.057 44.0587 144.849 42.736C146.641 41.3707 148.028 39.4507 149.009 36.976L150.737 37.808ZM183.308 46H181.388V27.44H162.188V46H160.268V8.88H162.188V25.52H181.388V8.88H183.308V46ZM198.847 44.08H219.711L206.591 13.168L192.639 46H190.591L206.591 8.24L222.591 46H198.847V44.08ZM229.893 8.88H231.812V46H229.893V8.88ZM243.955 46V8.88H245.875L266.739 42.48V8.88H268.659V46H266.739L245.875 12.336V46H243.955Z" fill="url(#paint0_linear_115_40)" shape-rendering="crispEdges"/>
<path d="M10.488 44.08V42.33H8.738V44.08H10.488ZM34.04 44.08V45.83H36.5385L35.6846 43.4819L34.04 44.08ZM20.472 6.768L22.1166 6.16995L20.4723 1.64811L18.8274 6.16973L20.472 6.768ZM6.2 46V47.75H7.42558L7.84456 46.5983L6.2 46ZM4.152 46L2.50743 45.4018L1.65322 47.75H4.152V46ZM20.472 1.136L22.1166 0.537759L20.472 -3.9832L18.8274 0.537759L20.472 1.136ZM36.792 46V47.75H39.2908L38.4366 45.4018L36.792 46ZM10.488 46H8.738V47.75H10.488V46ZM10.488 45.83H34.04V42.33H10.488V45.83ZM35.6846 43.4819L22.1166 6.16995L18.8274 7.36605L32.3954 44.6781L35.6846 43.4819ZM18.8274 6.16973L4.55544 45.4017L7.84456 46.5983L22.1166 7.36626L18.8274 6.16973ZM6.2 44.25H4.152V47.75H6.2V44.25ZM5.79657 46.5982L22.1166 1.73424L18.8274 0.537759L2.50743 45.4018L5.79657 46.5982ZM18.8274 1.73424L35.1474 46.5982L38.4366 45.4018L22.1166 0.537759L18.8274 1.73424ZM36.792 44.25H10.488V47.75H36.792V44.25ZM12.238 46V44.08H8.738V46H12.238ZM59.6335 27.376L58.9262 25.7753L57.2913 26.4977L58.0481 28.1169L59.6335 27.376ZM68.3375 46V47.75H71.0871L69.9229 45.2591L68.3375 46ZM66.2255 46L64.6397 46.7401L65.111 47.75H66.2255V46ZM57.2655 26.8L56.4829 25.2348L54.9594 25.9965L55.6797 27.5401L57.2655 26.8ZM58.3535 26.288L59.0936 27.8738L59.115 27.8638L59.1361 27.8532L58.3535 26.288ZM59.7615 25.584L60.5441 27.1493L60.6416 27.1005L60.7322 27.0401L59.7615 25.584ZM61.0415 24.752L61.9878 26.2241L61.0415 24.752ZM62.3855 23.664L63.7025 24.8164L63.7358 24.7783L63.7669 24.7384L62.3855 23.664ZM63.3455 22.384L61.9455 21.334L61.9378 21.3443L61.9302 21.3547L63.3455 22.384ZM64.1775 20.72L65.8602 21.2008L65.8644 21.1859L65.8684 21.1709L64.1775 20.72ZM60.5935 12.72L61.3761 11.1548L61.3761 11.1547L60.5935 12.72ZM45.9375 10.8V9.05H44.1875V10.8H45.9375ZM45.9375 46V47.75H47.6875V46H45.9375ZM44.0175 46H42.2675V47.75H44.0175V46ZM44.0175 8.88V7.13H42.2675V8.88H44.0175ZM62.4495 11.504L61.4621 12.9489L61.4733 12.9564L62.4495 11.504ZM64.3695 23.92L65.6795 25.0803L65.6876 25.0712L65.6956 25.0619L64.3695 23.92ZM58.0481 28.1169L66.7521 46.7409L69.9229 45.2591L61.2189 26.6351L58.0481 28.1169ZM68.3375 44.25H66.2255V47.75H68.3375V44.25ZM67.8113 45.2599L58.8513 26.0599L55.6797 27.5401L64.6397 46.7401L67.8113 45.2599ZM58.0481 28.3652C58.048 28.3653 58.0545 28.3621 58.0713 28.354C58.0869 28.3464 58.1076 28.3365 58.1339 28.324C58.1865 28.299 58.2571 28.2656 58.3466 28.2234C58.5255 28.1393 58.7742 28.0229 59.0936 27.8738L57.6134 24.7022C56.9892 24.9935 56.5956 25.1784 56.4829 25.2348L58.0481 28.3652ZM59.1361 27.8532C59.8188 27.5119 60.2881 27.2772 60.5441 27.1493L58.9789 24.0187C58.7229 24.1468 58.2535 24.3814 57.5709 24.7228L59.1361 27.8532ZM60.7322 27.0401C60.975 26.8782 61.3909 26.6078 61.9878 26.2241L60.0952 23.2799C59.4974 23.6642 59.06 23.9484 58.7908 24.1279L60.7322 27.0401ZM61.9878 26.2241C62.6546 25.7954 63.2529 25.3302 63.7025 24.8164L61.0685 22.5116C60.9208 22.6804 60.6231 22.9406 60.0952 23.2799L61.9878 26.2241ZM63.7669 24.7384C64.079 24.337 64.4104 23.8951 64.7608 23.4133L61.9302 21.3547C61.5979 21.8116 61.2893 22.2229 61.0041 22.5896L63.7669 24.7384ZM64.7455 23.434C65.2537 22.7564 65.629 22.0097 65.8602 21.2008L62.4948 20.2392C62.3846 20.6249 62.2053 20.9876 61.9455 21.334L64.7455 23.434ZM65.8684 21.1709C66.0818 20.3706 66.1835 19.5353 66.1835 18.672H62.6835C62.6835 19.2594 62.6145 19.7894 62.4866 20.2691L65.8684 21.1709ZM66.1835 18.672C66.1835 17.0394 65.7908 15.5318 64.944 14.2193C64.1013 12.9131 62.877 11.9052 61.3761 11.1548L59.8109 14.2852C60.87 14.8148 61.5657 15.4389 62.003 16.1167C62.4362 16.7882 62.6835 17.6166 62.6835 18.672H66.1835ZM61.3761 11.1547C58.5071 9.72022 55.0415 9.05 51.0575 9.05V12.55C54.6682 12.55 57.5599 13.1598 59.8109 14.2852L61.3761 11.1547ZM51.0575 9.05H45.9375V12.55H51.0575V9.05ZM44.1875 10.8V46H47.6875V10.8H44.1875ZM45.9375 44.25H44.0175V47.75H45.9375V44.25ZM45.7675 46V8.88H42.2675V46H45.7675ZM44.0175 10.63H51.0575V7.13H44.0175V10.63ZM51.0575 10.63C55.94 10.63 59.3233 11.4873 61.4622 12.9489L63.4368 10.0591C60.4557 8.02203 56.2443 7.13 51.0575 7.13V10.63ZM61.4733 12.9564C63.6127 14.3944 64.6035 16.2496 64.6035 18.672H68.1035C68.1035 15.0357 66.4917 12.1123 63.4257 10.0516L61.4733 12.9564ZM64.6035 18.672C64.6035 20.2008 64.1024 21.5483 63.0434 22.7781L65.6956 25.0619C67.282 23.2197 68.1035 21.0686 68.1035 18.672H64.6035ZM63.0595 22.7597C61.9047 24.0635 60.5319 25.0658 58.9262 25.7753L60.3408 28.9767C62.4044 28.0649 64.189 26.7631 65.6795 25.0803L63.0595 22.7597ZM101.018 8.88H102.768V7.13H101.018V8.88ZM101.018 10.8V12.55H102.768V10.8H101.018ZM87.5775 10.8V9.05H85.8275V10.8H87.5775ZM87.5775 46V47.75H89.3275V46H87.5775ZM85.6575 46H83.9075V47.75H85.6575V46ZM85.6575 10.8H87.4075V9.05H85.6575V10.8ZM72.2175 10.8H70.4675V12.55H72.2175V10.8ZM72.2175 8.88V7.13H70.4675V8.88H72.2175ZM99.2675 8.88V10.8H102.768V8.88H99.2675ZM101.018 9.05H87.5775V12.55H101.018V9.05ZM85.8275 10.8V46H89.3275V10.8H85.8275ZM87.5775 44.25H85.6575V47.75H87.5775V44.25ZM87.4075 46V10.8H83.9075V46H87.4075ZM85.6575 9.05H72.2175V12.55H85.6575V9.05ZM73.9675 10.8V8.88H70.4675V10.8H73.9675ZM72.2175 10.63H101.018V7.13H72.2175V10.63ZM107.368 42.288V40.538H105.618V42.288H107.368ZM111.592 42.288H113.342V40.538H111.592V42.288ZM111.592 46V47.75H113.342V46H111.592ZM107.368 46H105.618V47.75H107.368V46ZM107.368 44.038H111.592V40.538H107.368V44.038ZM109.842 42.288V46H113.342V42.288H109.842ZM111.592 44.25H107.368V47.75H111.592V44.25ZM109.118 46V42.288H105.618V46H109.118ZM150.737 37.808L152.357 38.4706L152.98 36.9459L151.496 36.2312L150.737 37.808ZM145.873 44.336L144.837 42.9257L145.873 44.336ZM125.073 41.84L123.655 42.866L123.662 42.8749L125.073 41.84ZM125.073 5.424L126.484 6.45891L126.491 6.44997L125.073 5.424ZM145.873 2.864L144.837 4.27429L145.873 2.864ZM150.737 9.392L151.496 10.9688L152.98 10.2541L152.357 8.72939L150.737 9.392ZM149.009 10.224L147.382 10.8691L148.075 12.616L149.768 11.8008L149.009 10.224ZM144.849 4.528L143.788 5.92001L143.799 5.92809L143.81 5.936L144.849 4.528ZM131.089 3.312L131.657 4.9674L131.678 4.96021L131.698 4.95249L131.089 3.312ZM127.057 6L128.336 7.19406L127.057 6ZM124.369 11.568L126.067 11.9924L126.068 11.9854L124.369 11.568ZM124.369 35.696L122.669 36.1134L122.671 36.1204L124.369 35.696ZM127.057 41.2L125.778 42.3941L127.057 41.2ZM131.089 43.952L130.48 45.5925L130.5 45.6002L130.521 45.6074L131.089 43.952ZM144.849 42.736L145.888 44.144L145.899 44.1361L145.91 44.128L144.849 42.736ZM149.009 36.976L149.768 35.3992L148.075 34.584L147.382 36.3309L149.009 36.976ZM149.117 37.1454C148.066 39.7154 146.626 41.6113 144.837 42.9257L146.909 45.7463C149.301 43.9887 151.104 41.5326 152.357 38.4706L149.117 37.1454ZM144.837 42.9257C143.18 44.1427 140.484 44.89 136.465 44.89V48.39C140.809 48.39 144.384 47.6013 146.909 45.7463L144.837 42.9257ZM136.465 44.89C131.578 44.89 128.4 43.4178 126.484 40.8051L123.662 42.8749C126.439 46.6622 130.856 48.39 136.465 48.39V44.89ZM126.491 40.814C124.465 38.0153 123.303 33.4275 123.303 26.736H119.803C119.803 33.6978 120.987 39.1794 123.655 42.866L126.491 40.814ZM123.303 26.736V20.464H119.803V26.736H123.303ZM123.303 20.464C123.303 13.7695 124.466 9.21034 126.484 6.45889L123.662 4.38911C120.986 8.03766 119.803 13.5052 119.803 20.464H123.303ZM126.491 6.44997C128.41 3.79784 131.587 2.31 136.465 2.31V-1.19C130.847 -1.19 126.429 0.564821 123.655 4.39803L126.491 6.44997ZM136.465 2.31C140.484 2.31 143.18 3.05729 144.837 4.27429L146.909 1.45371C144.384 -0.401292 140.809 -1.19 136.465 -1.19V2.31ZM144.837 4.27429C146.626 5.58869 148.066 7.48459 149.117 10.0546L152.357 8.72939C151.104 5.66741 149.301 3.21131 146.909 1.4537L144.837 4.27429ZM149.978 7.81524L148.25 8.64725L149.768 11.8008L151.496 10.9688L149.978 7.81524ZM150.636 9.5789C149.558 6.85995 147.991 4.67206 145.888 3.12L143.81 5.936C145.291 7.02927 146.498 8.63871 147.382 10.8691L150.636 9.5789ZM145.91 3.13599C143.666 1.42663 140.407 0.73 136.465 0.73V4.23C140.118 4.23 142.448 4.8987 143.788 5.92001L145.91 3.13599ZM136.465 0.73C134.228 0.73 132.218 1.02573 130.48 1.6715L131.698 4.95249C132.946 4.48893 134.521 4.23 136.465 4.23V0.73ZM130.521 1.65659C128.728 2.2715 127.146 3.33942 125.778 4.80594L128.336 7.19406C129.357 6.10058 130.463 5.3765 131.657 4.9674L130.521 1.65659ZM125.778 4.80594C124.31 6.37875 123.309 8.54558 122.67 11.1506L126.068 11.9854C126.623 9.72642 127.415 8.18125 128.336 7.19406L125.778 4.80594ZM122.671 11.1436C122.028 13.7176 121.723 16.8362 121.723 20.464H125.223C125.223 17.0091 125.516 14.1971 126.067 11.9924L122.671 11.1436ZM121.723 20.464V26.736H125.223V20.464H121.723ZM121.723 26.736C121.723 30.365 122.028 33.5015 122.67 36.1134L126.068 35.2786C125.515 33.0265 125.223 30.1896 125.223 26.736H121.723ZM122.671 36.1204C123.313 38.687 124.315 40.8267 125.778 42.3941L128.336 40.0059C127.41 39.0133 126.62 37.4837 126.067 35.2716L122.671 36.1204ZM125.778 42.3941C127.139 43.8529 128.707 44.934 130.48 45.5925L131.698 42.3115C130.484 41.8606 129.364 41.1071 128.336 40.0059L125.778 42.3941ZM130.521 45.6074C132.246 46.1986 134.24 46.47 136.465 46.47V42.97C134.509 42.97 132.919 42.7294 131.657 42.2966L130.521 45.6074ZM136.465 46.47C140.399 46.47 143.648 45.7972 145.888 44.144L143.81 41.328C142.466 42.3201 140.125 42.97 136.465 42.97V46.47ZM145.91 44.128C147.997 42.5373 149.559 40.3373 150.636 37.6211L147.382 36.3309C146.497 38.564 145.285 40.2041 143.788 41.344L145.91 44.128ZM148.25 38.5528L149.978 39.3848L151.496 36.2312L149.768 35.3992L148.25 38.5528ZM183.307 46V47.75H185.057V46H183.307ZM181.387 46H179.637V47.75H181.387V46ZM181.387 27.44H183.137V25.69H181.387V27.44ZM162.188 27.44V25.69H160.438V27.44H162.188ZM162.188 46V47.75H163.938V46H162.188ZM160.268 46H158.518V47.75H160.268V46ZM160.268 8.88V7.13H158.518V8.88H160.268ZM162.188 8.88H163.938V7.13H162.188V8.88ZM162.188 25.52H160.438V27.27H162.188V25.52ZM181.387 25.52V27.27H183.137V25.52H181.387ZM181.387 8.88V7.13H179.637V8.88H181.387ZM183.307 8.88H185.057V7.13H183.307V8.88ZM183.307 44.25H181.387V47.75H183.307V44.25ZM183.137 46V27.44H179.637V46H183.137ZM181.387 25.69H162.188V29.19H181.387V25.69ZM160.438 27.44V46H163.938V27.44H160.438ZM162.188 44.25H160.268V47.75H162.188V44.25ZM162.018 46V8.88H158.518V46H162.018ZM160.268 10.63H162.188V7.13H160.268V10.63ZM160.438 8.88V25.52H163.938V8.88H160.438ZM162.188 27.27H181.387V23.77H162.188V27.27ZM183.137 25.52V8.88H179.637V25.52H183.137ZM181.387 10.63H183.307V7.13H181.387V10.63ZM181.557 8.88V46H185.057V8.88H181.557ZM198.847 44.08V42.33H197.097V44.08H198.847ZM219.711 44.08V45.83H222.355L221.322 43.3963L219.711 44.08ZM206.591 13.168L208.202 12.4843L206.592 8.69115L204.98 12.4836L206.591 13.168ZM192.639 46V47.75H193.797L194.25 46.6844L192.639 46ZM190.591 46L188.98 45.3172L187.949 47.75H190.591V46ZM206.591 8.24L208.202 7.55724L206.591 3.75453L204.98 7.55724L206.591 8.24ZM222.591 46V47.75H225.233L224.202 45.3172L222.591 46ZM198.847 46H197.097V47.75H198.847V46ZM198.847 45.83H219.711V42.33H198.847V45.83ZM221.322 43.3963L208.202 12.4843L204.98 13.8517L218.1 44.7637L221.322 43.3963ZM204.98 12.4836L191.028 45.3156L194.25 46.6844L208.202 13.8524L204.98 12.4836ZM192.639 44.25H190.591V47.75H192.639V44.25ZM192.202 46.6828L208.202 8.92276L204.98 7.55724L188.98 45.3172L192.202 46.6828ZM204.98 8.92276L220.98 46.6828L224.202 45.3172L208.202 7.55724L204.98 8.92276ZM222.591 44.25H198.847V47.75H222.591V44.25ZM200.597 46V44.08H197.097V46H200.597ZM229.893 8.88V7.13H228.143V8.88H229.893ZM231.812 8.88H233.562V7.13H231.812V8.88ZM231.812 46V47.75H233.562V46H231.812ZM229.893 46H228.143V47.75H229.893V46ZM229.893 10.63H231.812V7.13H229.893V10.63ZM230.062 8.88V46H233.562V8.88H230.062ZM231.812 44.25H229.893V47.75H231.812V44.25ZM231.643 46V8.88H228.143V46H231.643ZM243.955 46H242.205V47.75H243.955V46ZM243.955 8.88V7.13H242.205V8.88H243.955ZM245.875 8.88L247.362 7.95683L246.848 7.13H245.875V8.88ZM266.739 42.48L265.252 43.4032L268.489 48.6156V42.48H266.739ZM266.739 8.88V7.13H264.989V8.88H266.739ZM268.659 8.88H270.409V7.13H268.659V8.88ZM268.659 46V47.75H270.409V46H268.659ZM266.739 46L265.252 46.9219L265.765 47.75H266.739V46ZM245.875 12.336L247.362 11.4141L244.125 6.19043V12.336H245.875ZM245.875 46V47.75H247.625V46H245.875ZM245.705 46V8.88H242.205V46H245.705ZM243.955 10.63H245.875V7.13H243.955V10.63ZM244.388 9.80316L265.252 43.4032L268.226 41.5568L247.362 7.95683L244.388 9.80316ZM268.489 42.48V8.88H264.989V42.48H268.489ZM266.739 10.63H268.659V7.13H266.739V10.63ZM266.909 8.88V46H270.409V8.88H266.909ZM268.659 44.25H266.739V47.75H268.659V44.25ZM268.226 45.0781L247.362 11.4141L244.388 13.2579L265.252 46.9219L268.226 45.0781ZM244.125 12.336V46H247.625V12.336H244.125ZM245.875 44.25H243.955V47.75H245.875V44.25Z" fill="url(#paint1_linear_115_40)"/>
</g>
<defs>
<filter id="filter0_d_115_40" x="0.1521" y="0.559998" width="272.507" height="54.08" filterUnits="userSpaceOnUse" color-interpolation-filters="sRGB">
<feFlood flood-opacity="0" result="BackgroundImageFix"/>
<feColorMatrix in="SourceAlpha" type="matrix" values="0 0 0 0 0 0 0 0 0 0 0 0 0 0 0 0 0 0 127 0" result="hardAlpha"/>
<feOffset dy="4"/>
<feGaussianBlur stdDeviation="2"/>
<feComposite in2="hardAlpha" operator="out"/>
<feColorMatrix type="matrix" values="0 0 0 0 0 0 0 0 0 0 0 0 0 0 0 0 0 0 0.25 0"/>
<feBlend mode="normal" in2="BackgroundImageFix" result="effect1_dropShadow_115_40"/>
<feBlend mode="normal" in="SourceGraphic" in2="effect1_dropShadow_115_40" result="shape"/>
</filter>
<linearGradient id="paint0_linear_115_40" x1="139" y1="-13" x2="139" y2="64" gradientUnits="userSpaceOnUse">
<stop stop-color="#494949"/>
<stop offset="1" stop-color="#494949" stop-opacity="0"/>
</linearGradient>
<linearGradient id="paint1_linear_115_40" x1="165" y1="-66.5" x2="162" y2="121" gradientUnits="userSpaceOnUse">
<stop/>
<stop offset="1" stop-color="#434242" stop-opacity="0.4"/>
</linearGradient>
</defs>
</svg>
