<svg width="265" height="47" viewBox="0 0 265 47" fill="none" xmlns="http://www.w3.org/2000/svg">
<g style="mix-blend-mode:hard-light">
<path d="M6.488 44.08H30.04L16.472 6.768L2.2 46H0.152L16.472 1.136L32.792 46H6.488V44.08ZM55.6335 27.376L64.3375 46H62.2255L53.2655 26.8C53.3508 26.7573 53.7135 26.5867 54.3535 26.288C55.0362 25.9467 55.5055 25.712 55.7615 25.584C56.0175 25.4133 56.4442 25.136 57.0415 24.752C57.6388 24.368 58.0868 24.0053 58.3855 23.664C58.6842 23.28 59.0042 22.8533 59.3455 22.384C59.7295 21.872 60.0068 21.3173 60.1775 20.72C60.3482 20.08 60.4335 19.3973 60.4335 18.672C60.4335 15.984 59.1535 14 56.5935 12.72C54.0335 11.44 50.8548 10.8 47.0575 10.8H41.9375V46H40.0175V8.88H47.0575C52.0922 8.88 55.8895 9.75466 58.4495 11.504C61.0522 13.2533 62.3535 15.6427 62.3535 18.672C62.3535 20.6347 61.6922 22.384 60.3695 23.92C59.0468 25.4133 57.4682 26.5653 55.6335 27.376ZM97.0175 8.88V10.8H83.5775V46H81.6575V10.8H68.2175V8.88H97.0175ZM103.369 42.288H107.593V46H103.369V42.288ZM146.737 37.808C145.585 40.624 143.964 42.8 141.873 44.336C139.782 45.872 136.646 46.64 132.465 46.64C127.217 46.64 123.42 45.04 121.073 41.84C118.726 38.5973 117.553 33.5627 117.553 26.736V20.464C117.553 13.6373 118.726 8.624 121.073 5.424C123.42 2.18133 127.217 0.559998 132.465 0.559998C136.646 0.559998 139.782 1.328 141.873 2.864C143.964 4.4 145.585 6.576 146.737 9.392L145.009 10.224C144.028 7.74933 142.641 5.85066 140.849 4.528C139.057 3.16267 136.262 2.48 132.465 2.48C130.374 2.48 128.582 2.75733 127.089 3.312C125.596 3.824 124.252 4.72 123.057 6C121.862 7.28 120.966 9.136 120.369 11.568C119.772 13.9573 119.473 16.9227 119.473 20.464V26.736C119.473 30.2773 119.772 33.264 120.369 35.696C120.966 38.0853 121.862 39.92 123.057 41.2C124.252 42.48 125.596 43.3973 127.089 43.952C128.582 44.464 130.374 44.72 132.465 44.72C136.262 44.72 139.057 44.0587 140.849 42.736C142.641 41.3707 144.028 39.4507 145.009 36.976L146.737 37.808ZM179.308 46H177.388V27.44H158.188V46H156.268V8.88H158.188V25.52H177.388V8.88H179.308V46ZM194.847 44.08H215.711L202.591 13.168L188.639 46H186.591L202.591 8.24L218.591 46H194.847V44.08ZM225.893 8.88H227.812V46H225.893V8.88ZM239.955 46V8.88H241.875L262.739 42.48V8.88H264.659V46H262.739L241.875 12.336V46H239.955Z" fill="white"/>
<path d="M6.488 44.08V42.33H4.738V44.08H6.488ZM30.04 44.08V45.83H32.5385L31.6846 43.4819L30.04 44.08ZM16.472 6.768L18.1166 6.16995L16.4723 1.64811L14.8274 6.16973L16.472 6.768ZM2.2 46V47.75H3.42558L3.84456 46.5983L2.2 46ZM0.152 46L-1.49257 45.4018L-2.34678 47.75H0.152V46ZM16.472 1.136L18.1166 0.537759L16.472 -3.9832L14.8274 0.537759L16.472 1.136ZM32.792 46V47.75H35.2908L34.4366 45.4018L32.792 46ZM6.488 46H4.738V47.75H6.488V46ZM6.488 45.83H30.04V42.33H6.488V45.83ZM31.6846 43.4819L18.1166 6.16995L14.8274 7.36605L28.3954 44.6781L31.6846 43.4819ZM14.8274 6.16973L0.55544 45.4017L3.84456 46.5983L18.1166 7.36626L14.8274 6.16973ZM2.2 44.25H0.152V47.75H2.2V44.25ZM1.79657 46.5982L18.1166 1.73424L14.8274 0.537759L-1.49257 45.4018L1.79657 46.5982ZM14.8274 1.73424L31.1474 46.5982L34.4366 45.4018L18.1166 0.537759L14.8274 1.73424ZM32.792 44.25H6.488V47.75H32.792V44.25ZM8.238 46V44.08H4.738V46H8.238ZM55.6335 27.376L54.9262 25.7753L53.2913 26.4977L54.0481 28.1169L55.6335 27.376ZM64.3375 46V47.75H67.0871L65.9229 45.2591L64.3375 46ZM62.2255 46L60.6397 46.74L61.111 47.75H62.2255V46ZM53.2655 26.8L52.4829 25.2348L50.9594 25.9965L51.6797 27.54L53.2655 26.8ZM54.3535 26.288L55.0936 27.8738L55.115 27.8638L55.1361 27.8532L54.3535 26.288ZM55.7615 25.584L56.5441 27.1492L56.6416 27.1005L56.7322 27.0401L55.7615 25.584ZM57.0415 24.752L57.9878 26.2241L57.9878 26.2241L57.0415 24.752ZM58.3855 23.664L59.7025 24.8164L59.7358 24.7783L59.7669 24.7384L58.3855 23.664ZM59.3455 22.384L57.9455 21.334L57.9378 21.3443L57.9302 21.3547L59.3455 22.384ZM60.1775 20.72L61.8602 21.2008L61.8644 21.1859L61.8684 21.1709L60.1775 20.72ZM56.5935 12.72L57.3761 11.1547L57.3761 11.1547L56.5935 12.72ZM41.9375 10.8V9.05H40.1875V10.8H41.9375ZM41.9375 46V47.75H43.6875V46H41.9375ZM40.0175 46H38.2675V47.75H40.0175V46ZM40.0175 8.88V7.13H38.2675V8.88H40.0175ZM58.4495 11.504L57.4621 12.9489L57.4733 12.9564L58.4495 11.504ZM60.3695 23.92L61.6795 25.0803L61.6876 25.0712L61.6956 25.0619L60.3695 23.92ZM54.0481 28.1169L62.7521 46.7409L65.9229 45.2591L57.2189 26.6351L54.0481 28.1169ZM64.3375 44.25H62.2255V47.75H64.3375V44.25ZM63.8113 45.26L54.8513 26.0599L51.6797 27.54L60.6397 46.74L63.8113 45.26ZM54.0481 28.3652C54.048 28.3653 54.0545 28.3621 54.0713 28.354C54.0869 28.3464 54.1076 28.3365 54.1339 28.324C54.1865 28.299 54.2571 28.2656 54.3466 28.2234C54.5255 28.1393 54.7742 28.0229 55.0936 27.8738L53.6135 24.7022C52.9892 24.9935 52.5956 25.1784 52.4829 25.2348L54.0481 28.3652ZM55.1361 27.8532C55.8188 27.5119 56.2881 27.2772 56.5441 27.1492L54.9789 24.0188C54.7229 24.1468 54.2535 24.3814 53.5709 24.7228L55.1361 27.8532ZM56.7322 27.0401C56.975 26.8782 57.3909 26.6078 57.9878 26.2241L56.0952 23.2799C55.4974 23.6642 55.06 23.9484 54.7908 24.1279L56.7322 27.0401ZM57.9878 26.2241C58.6546 25.7954 59.2529 25.3302 59.7025 24.8164L57.0685 22.5116C56.9208 22.6804 56.6231 22.9406 56.0952 23.2799L57.9878 26.2241ZM59.7669 24.7384C60.079 24.337 60.4104 23.895 60.7608 23.4133L57.9302 21.3547C57.5979 21.8116 57.2893 22.223 57.0041 22.5896L59.7669 24.7384ZM60.7455 23.434C61.2537 22.7564 61.629 22.0097 61.8602 21.2008L58.4948 20.2392C58.3846 20.6249 58.2053 20.9876 57.9455 21.334L60.7455 23.434ZM61.8684 21.1709C62.0818 20.3706 62.1835 19.5353 62.1835 18.672H58.6835C58.6835 19.2594 58.6145 19.7894 58.4866 20.2691L61.8684 21.1709ZM62.1835 18.672C62.1835 17.0394 61.7908 15.5318 60.944 14.2193C60.1013 12.9131 58.877 11.9052 57.3761 11.1547L55.8109 14.2852C56.87 14.8148 57.5657 15.4389 58.003 16.1167C58.4362 16.7882 58.6835 17.6166 58.6835 18.672H62.1835ZM57.3761 11.1547C54.5071 9.72022 51.0415 9.05 47.0575 9.05V12.55C50.6682 12.55 53.5599 13.1598 55.8109 14.2852L57.3761 11.1547ZM47.0575 9.05H41.9375V12.55H47.0575V9.05ZM40.1875 10.8V46H43.6875V10.8H40.1875ZM41.9375 44.25H40.0175V47.75H41.9375V44.25ZM41.7675 46V8.88H38.2675V46H41.7675ZM40.0175 10.63H47.0575V7.13H40.0175V10.63ZM47.0575 10.63C51.94 10.63 55.3233 11.4873 57.4622 12.9489L59.4368 10.0591C56.4557 8.02203 52.2443 7.13 47.0575 7.13V10.63ZM57.4733 12.9564C59.6127 14.3944 60.6035 16.2496 60.6035 18.672H64.1035C64.1035 15.0357 62.4917 12.1123 59.4257 10.0516L57.4733 12.9564ZM60.6035 18.672C60.6035 20.2008 60.1024 21.5483 59.0434 22.7781L61.6956 25.0619C63.2819 23.2197 64.1035 21.0686 64.1035 18.672H60.6035ZM59.0595 22.7597C57.9046 24.0635 56.5319 25.0658 54.9262 25.7753L56.3408 28.9767C58.4044 28.0649 60.189 26.7631 61.6795 25.0803L59.0595 22.7597ZM97.0175 8.88H98.7675V7.13H97.0175V8.88ZM97.0175 10.8V12.55H98.7675V10.8H97.0175ZM83.5775 10.8V9.05H81.8275V10.8H83.5775ZM83.5775 46V47.75H85.3275V46H83.5775ZM81.6575 46H79.9075V47.75H81.6575V46ZM81.6575 10.8H83.4075V9.05H81.6575V10.8ZM68.2175 10.8H66.4675V12.55H68.2175V10.8ZM68.2175 8.88V7.13H66.4675V8.88H68.2175ZM95.2675 8.88V10.8H98.7675V8.88H95.2675ZM97.0175 9.05H83.5775V12.55H97.0175V9.05ZM81.8275 10.8V46H85.3275V10.8H81.8275ZM83.5775 44.25H81.6575V47.75H83.5775V44.25ZM83.4075 46V10.8H79.9075V46H83.4075ZM81.6575 9.05H68.2175V12.55H81.6575V9.05ZM69.9675 10.8V8.88H66.4675V10.8H69.9675ZM68.2175 10.63H97.0175V7.13H68.2175V10.63ZM103.369 42.288V40.538H101.619V42.288H103.369ZM107.593 42.288H109.343V40.538H107.593V42.288ZM107.593 46V47.75H109.343V46H107.593ZM103.369 46H101.619V47.75H103.369V46ZM103.369 44.038H107.593V40.538H103.369V44.038ZM105.843 42.288V46H109.343V42.288H105.843ZM107.593 44.25H103.369V47.75H107.593V44.25ZM105.119 46V42.288H101.619V46H105.119ZM146.737 37.808L148.357 38.4706L148.98 36.9459L147.496 36.2312L146.737 37.808ZM141.873 44.336L140.837 42.9257L140.837 42.9257L141.873 44.336ZM121.073 41.84L119.655 42.866L119.662 42.8749L121.073 41.84ZM121.073 5.424L122.484 6.45891L122.491 6.44997L121.073 5.424ZM141.873 2.864L140.837 4.27429L140.837 4.27429L141.873 2.864ZM146.737 9.392L147.496 10.9688L148.98 10.2541L148.357 8.72939L146.737 9.392ZM145.009 10.224L143.382 10.8691L144.075 12.616L145.768 11.8008L145.009 10.224ZM140.849 4.528L139.788 5.92001L139.799 5.92809L139.81 5.93601L140.849 4.528ZM127.089 3.312L127.657 4.9674L127.678 4.96021L127.698 4.95249L127.089 3.312ZM123.057 6L124.336 7.19406L124.336 7.19406L123.057 6ZM120.369 11.568L122.067 11.9924L122.068 11.9854L120.369 11.568ZM120.369 35.696L118.669 36.1134L118.671 36.1204L120.369 35.696ZM123.057 41.2L121.778 42.3941L121.778 42.3941L123.057 41.2ZM127.089 43.952L126.48 45.5925L126.5 45.6002L126.521 45.6074L127.089 43.952ZM140.849 42.736L141.888 44.144L141.899 44.1361L141.91 44.128L140.849 42.736ZM145.009 36.976L145.768 35.3992L144.075 34.584L143.382 36.3309L145.009 36.976ZM145.117 37.1454C144.066 39.7154 142.626 41.6113 140.837 42.9257L142.909 45.7463C145.301 43.9887 147.104 41.5326 148.357 38.4706L145.117 37.1454ZM140.837 42.9257C139.18 44.1427 136.484 44.89 132.465 44.89V48.39C136.809 48.39 140.384 47.6013 142.909 45.7463L140.837 42.9257ZM132.465 44.89C127.578 44.89 124.4 43.4178 122.484 40.8051L119.662 42.8749C122.439 46.6622 126.856 48.39 132.465 48.39V44.89ZM122.491 40.814C120.465 38.0153 119.303 33.4275 119.303 26.736H115.803C115.803 33.6978 116.987 39.1794 119.655 42.866L122.491 40.814ZM119.303 26.736V20.464H115.803V26.736H119.303ZM119.303 20.464C119.303 13.7695 120.466 9.21034 122.484 6.45889L119.662 4.38911C116.986 8.03766 115.803 13.5052 115.803 20.464H119.303ZM122.491 6.44997C124.41 3.79784 127.587 2.31 132.465 2.31V-1.19C126.847 -1.19 122.429 0.564821 119.655 4.39803L122.491 6.44997ZM132.465 2.31C136.484 2.31 139.18 3.05729 140.837 4.27429L142.909 1.45371C140.384 -0.401292 136.809 -1.19 132.465 -1.19V2.31ZM140.837 4.27429C142.626 5.58869 144.066 7.48459 145.117 10.0546L148.357 8.72939C147.104 5.66741 145.301 3.21131 142.909 1.45371L140.837 4.27429ZM145.978 7.81525L144.25 8.64725L145.768 11.8008L147.496 10.9688L145.978 7.81525ZM146.636 9.5789C145.558 6.85995 143.991 4.67206 141.888 3.11999L139.81 5.93601C141.291 7.02927 142.498 8.63871 143.382 10.8691L146.636 9.5789ZM141.91 3.13599C139.666 1.42663 136.407 0.73 132.465 0.73V4.23C136.118 4.23 138.448 4.8987 139.788 5.92001L141.91 3.13599ZM132.465 0.73C130.228 0.73 128.218 1.02573 126.48 1.6715L127.698 4.95249C128.946 4.48893 130.521 4.23 132.465 4.23V0.73ZM126.521 1.65659C124.728 2.2715 123.146 3.33942 121.778 4.80594L124.336 7.19406C125.357 6.10058 126.463 5.3765 127.657 4.9674L126.521 1.65659ZM121.778 4.80594C120.31 6.37875 119.309 8.54558 118.67 11.1506L122.068 11.9854C122.623 9.72642 123.415 8.18125 124.336 7.19406L121.778 4.80594ZM118.671 11.1436C118.028 13.7176 117.723 16.8362 117.723 20.464H121.223C121.223 17.0091 121.516 14.1971 122.067 11.9924L118.671 11.1436ZM117.723 20.464V26.736H121.223V20.464H117.723ZM117.723 26.736C117.723 30.365 118.028 33.5015 118.67 36.1134L122.068 35.2786C121.515 33.0265 121.223 30.1896 121.223 26.736H117.723ZM118.671 36.1204C119.313 38.687 120.315 40.8267 121.778 42.3941L124.336 40.0059C123.41 39.0133 122.62 37.4837 122.067 35.2716L118.671 36.1204ZM121.778 42.3941C123.139 43.8529 124.707 44.934 126.48 45.5925L127.698 42.3115C126.484 41.8607 125.364 41.1071 124.336 40.0059L121.778 42.3941ZM126.521 45.6074C128.246 46.1986 130.24 46.47 132.465 46.47V42.97C130.509 42.97 128.919 42.7294 127.657 42.2966L126.521 45.6074ZM132.465 46.47C136.399 46.47 139.648 45.7972 141.888 44.144L139.81 41.328C138.466 42.3201 136.125 42.97 132.465 42.97V46.47ZM141.91 44.128C143.997 42.5373 145.559 40.3373 146.636 37.6211L143.382 36.3309C142.497 38.564 141.285 40.2041 139.788 41.344L141.91 44.128ZM144.25 38.5528L145.978 39.3848L147.496 36.2312L145.768 35.3992L144.25 38.5528ZM179.308 46V47.75H181.058V46H179.308ZM177.388 46H175.638V47.75H177.388V46ZM177.388 27.44H179.138V25.69H177.388V27.44ZM158.188 27.44V25.69H156.438V27.44H158.188ZM158.188 46V47.75H159.938V46H158.188ZM156.268 46H154.518V47.75H156.268V46ZM156.268 8.88V7.13H154.518V8.88H156.268ZM158.188 8.88H159.938V7.13H158.188V8.88ZM158.188 25.52H156.438V27.27H158.188V25.52ZM177.388 25.52V27.27H179.138V25.52H177.388ZM177.388 8.88V7.13H175.638V8.88H177.388ZM179.308 8.88H181.058V7.13H179.308V8.88ZM179.308 44.25H177.388V47.75H179.308V44.25ZM179.138 46V27.44H175.638V46H179.138ZM177.388 25.69H158.188V29.19H177.388V25.69ZM156.438 27.44V46H159.938V27.44H156.438ZM158.188 44.25H156.268V47.75H158.188V44.25ZM158.018 46V8.88H154.518V46H158.018ZM156.268 10.63H158.188V7.13H156.268V10.63ZM156.438 8.88V25.52H159.938V8.88H156.438ZM158.188 27.27H177.388V23.77H158.188V27.27ZM179.138 25.52V8.88H175.638V25.52H179.138ZM177.388 10.63H179.308V7.13H177.388V10.63ZM177.558 8.88V46H181.058V8.88H177.558ZM194.847 44.08V42.33H193.097V44.08H194.847ZM215.711 44.08V45.83H218.355L217.322 43.3963L215.711 44.08ZM202.591 13.168L204.202 12.4843L202.592 8.69115L200.98 12.4836L202.591 13.168ZM188.639 46V47.75H189.797L190.25 46.6844L188.639 46ZM186.591 46L184.98 45.3172L183.949 47.75H186.591V46ZM202.591 8.24L204.202 7.55724L202.591 3.75453L200.98 7.55724L202.591 8.24ZM218.591 46V47.75H221.233L220.202 45.3172L218.591 46ZM194.847 46H193.097V47.75H194.847V46ZM194.847 45.83H215.711V42.33H194.847V45.83ZM217.322 43.3963L204.202 12.4843L200.98 13.8517L214.1 44.7637L217.322 43.3963ZM200.98 12.4836L187.028 45.3156L190.25 46.6844L204.202 13.8524L200.98 12.4836ZM188.639 44.25H186.591V47.75H188.639V44.25ZM188.202 46.6828L204.202 8.92276L200.98 7.55724L184.98 45.3172L188.202 46.6828ZM200.98 8.92276L216.98 46.6828L220.202 45.3172L204.202 7.55724L200.98 8.92276ZM218.591 44.25H194.847V47.75H218.591V44.25ZM196.597 46V44.08H193.097V46H196.597ZM225.893 8.88V7.13H224.143V8.88H225.893ZM227.812 8.88H229.562V7.13H227.812V8.88ZM227.812 46V47.75H229.562V46H227.812ZM225.893 46H224.143V47.75H225.893V46ZM225.893 10.63H227.812V7.13H225.893V10.63ZM226.062 8.88V46H229.562V8.88H226.062ZM227.812 44.25H225.893V47.75H227.812V44.25ZM227.643 46V8.88H224.143V46H227.643ZM239.955 46H238.205V47.75H239.955V46ZM239.955 8.88V7.13H238.205V8.88H239.955ZM241.875 8.88L243.362 7.95683L242.848 7.13H241.875V8.88ZM262.739 42.48L261.252 43.4032L264.489 48.6156V42.48H262.739ZM262.739 8.88V7.13H260.989V8.88H262.739ZM264.659 8.88H266.409V7.13H264.659V8.88ZM264.659 46V47.75H266.409V46H264.659ZM262.739 46L261.252 46.9219L261.765 47.75H262.739V46ZM241.875 12.336L243.362 11.4141L240.125 6.19043V12.336H241.875ZM241.875 46V47.75H243.625V46H241.875ZM241.705 46V8.88H238.205V46H241.705ZM239.955 10.63H241.875V7.13H239.955V10.63ZM240.388 9.80316L261.252 43.4032L264.226 41.5568L243.362 7.95683L240.388 9.80316ZM264.489 42.48V8.88H260.989V42.48H264.489ZM262.739 10.63H264.659V7.13H262.739V10.63ZM262.909 8.88V46H266.409V8.88H262.909ZM264.659 44.25H262.739V47.75H264.659V44.25ZM264.226 45.0781L243.362 11.4141L240.388 13.2579L261.252 46.9219L264.226 45.0781ZM240.125 12.336V46H243.625V12.336H240.125ZM241.875 44.25H239.955V47.75H241.875V44.25Z" fill="white"/>
</g>
</svg>
